<svg xmlns="http://www.w3.org/2000/svg" width="600" height="137" fill="none"><g fill="#003DFF" clip-path="url(#a)"><path fill-rule="evenodd" d="M292.32 75.154V1.685a1.61 1.61 0 0 0-1.862-1.59l-13.781 2.166c-.784.123-1.362.799-1.362 1.593l.046 74.513c0 3.523 0 25.281 26.209 26.042a1.615 1.615 0 0 0 1.663-1.612V91.675c0-.807-.598-1.502-1.398-1.592-9.517-1.094-9.517-12.974-9.517-14.924l.002-.005Z" clip-rule="evenodd"/><path d="M519.589 28.639h-13.868a1.61 1.61 0 0 0-1.612 1.609v72.571a1.61 1.61 0 0 0 1.612 1.609h13.868c.887 0 1.611-.721 1.611-1.609V30.248c0-.889-.724-1.61-1.611-1.61Z"/><path fill-rule="evenodd" d="M505.721 19.54h13.865c.89 0 1.611-.72 1.611-1.609V1.685c0-.987-.885-1.742-1.862-1.59l-13.866 2.169a1.61 1.61 0 0 0-1.363 1.59V17.93c0 .89.722 1.61 1.612 1.61h.003Zm-23.965 55.614V1.685c0-.99-.885-1.742-1.863-1.59l-13.78 2.166c-.784.123-1.363.799-1.363 1.593l.047 74.513c0 3.523 0 25.281 26.209 26.042a1.616 1.616 0 0 0 1.663-1.612V91.675c0-.807-.598-1.502-1.398-1.592-9.518-1.094-9.518-12.974-9.518-14.924l.003-.005Zm-36.071-36.155c-3.042-3.34-6.781-5.904-11.137-7.72-4.348-1.781-9.083-2.687-14.22-2.687-5.129 0-9.873.865-14.18 2.687-4.257 1.816-7.999 4.377-11.131 7.72-3.133 3.336-5.566 7.328-7.308 12.008-1.743 4.683-2.524 10.192-2.524 15.916 0 5.725.871 10.055 2.608 14.784 1.743 4.724 4.135 8.758 7.224 12.098 3.083 3.336 6.781 5.897 11.088 7.762 4.306 1.863 10.956 2.817 14.31 2.858 3.346 0 10.045-1.042 14.392-2.858 4.348-1.822 8.046-4.426 11.137-7.762 3.084-3.34 5.476-7.374 7.169-12.098 1.699-4.728 2.524-9.06 2.524-14.784s-.912-11.233-2.739-15.916c-1.743-4.682-4.135-8.672-7.218-12.008h.005Zm-12.134 44.658c-3.132 4.296-7.526 6.464-13.133 6.464-5.612 0-10.004-2.127-13.136-6.464-3.133-4.295-4.7-9.275-4.7-16.69 0-7.334 1.526-13.402 4.659-17.692 3.127-4.295 7.521-6.414 13.128-6.414 5.612 0 10.003 2.122 13.133 6.414 3.132 4.247 4.741 10.358 4.741 17.692 0 7.415-1.562 12.354-4.695 16.69h.003ZM244.265 28.64h-13.472c-13.207 0-24.828 6.948-31.612 17.481-3.965 6.158-6.278 13.535-6.278 21.471 0 12.243 5.497 23.16 14.089 30.3.8.709 1.652 1.358 2.543 1.947 3.512 2.315 7.676 3.674 12.158 3.674.336 0 .672-.009 1.005-.025.098-.005.194-.014.292-.019.238-.014.478-.03.716-.055.093-.008.185-.021.278-.032.249-.028.497-.058.746-.093l.172-.027c8.982-1.383 16.812-8.406 19.363-17.13v15.772a1.61 1.61 0 0 0 1.611 1.609h13.77c.89 0 1.611-.72 1.611-1.609V30.248c0-.89-.721-1.61-1.611-1.61h-15.381Zm0 56.431c-3.332 2.771-7.639 3.813-12.246 4.124-.044.002-.09.008-.134.01-.306.02-.612.028-.918.028-11.535 0-21.061-9.788-21.061-21.646 0-2.796.535-5.457 1.48-7.904 3.064-7.941 10.588-13.565 19.407-13.565h13.472V85.07ZM582.787 28.64h-13.472c-13.208 0-24.828 6.948-31.612 17.481-3.965 6.158-6.278 13.535-6.278 21.471 0 12.243 5.497 23.16 14.089 30.3.8.709 1.652 1.358 2.542 1.947 3.513 2.315 7.677 3.674 12.159 3.674.336 0 .672-.009 1.005-.025.098-.005.194-.014.292-.019.238-.014.478-.03.716-.055.092-.008.185-.021.278-.032.249-.028.497-.058.746-.093.057-.008.114-.019.172-.027 8.982-1.383 16.812-8.406 19.363-17.13v15.772a1.61 1.61 0 0 0 1.611 1.609h13.77c.89 0 1.611-.72 1.611-1.609V30.248c0-.89-.721-1.61-1.611-1.61h-15.381Zm0 56.431c-3.332 2.771-7.639 3.813-12.246 4.124-.044.002-.09.008-.134.01-.306.02-.612.028-.918.028-11.535 0-21.061-9.788-21.061-21.646 0-2.796.535-5.457 1.48-7.904 3.064-7.941 10.588-13.565 19.407-13.565h13.472V85.07ZM358.867 28.64h-13.472c-13.207 0-24.828 6.948-31.612 17.481a39.432 39.432 0 0 0-6.038 17.07 40.48 40.48 0 0 0 .014 8.926c1.169 10.388 6.319 19.53 13.835 25.778.8.709 1.652 1.358 2.543 1.947 3.512 2.315 7.676 3.673 12.158 3.673 4.913 0 9.452-1.617 13.152-4.355 4.449-3.158 7.888-7.784 9.417-13.023v13.708h-.03v3.021c0 5.956-1.56 10.437-4.736 13.462-3.17 3.022-8.477 4.535-15.908 4.535-3.037 0-7.862-.161-12.726-.657a1.621 1.621 0 0 0-1.713 1.151l-3.49 11.757a1.614 1.614 0 0 0 1.319 2.053c5.877.84 11.613 1.277 14.925 1.277 13.358 0 23.257-2.932 29.738-8.785 5.866-5.293 9.053-13.333 9.613-24.141V30.253a1.61 1.61 0 0 0-1.611-1.609h-15.381l.003-.005Zm0 17.481s.177 37.944 0 39.097c-3.299 2.665-7.404 3.707-11.877 4.01-.044.002-.091.008-.134.01-.306.02-.612.028-.918.028-.36 0-.718-.009-1.076-.028-11.036-.575-20.351-10.161-20.351-21.648 0-2.796.535-5.457 1.48-7.904 3.064-7.942 10.588-13.565 19.406-13.565h13.472-.002Z" clip-rule="evenodd"/><path d="M68.227.076C30.941.076.545 30.098.007 67.206c-.546 37.688 30.074 68.918 67.819 69.136 11.656.068 22.883-2.779 32.854-8.19a1.594 1.594 0 0 0 .295-2.594l-6.385-5.65c-1.297-1.149-3.144-1.473-4.741-.797-6.959 2.957-14.521 4.467-22.315 4.372-30.5-.374-55.142-25.715-54.656-56.17.481-30.07 25.126-54.383 55.35-54.383h55.354v98.253L92.176 83.316c-1.016-.902-2.573-.725-3.392.358-5.042 6.665-13.254 10.81-22.375 10.183-12.653-.873-22.905-11.045-23.853-23.675-1.133-15.065 10.823-27.687 25.671-27.687 13.431 0 24.492 10.323 25.647 23.441a4.579 4.579 0 0 0 1.508 3.033l8.179 7.24c.929.821 2.401.32 2.63-.9.59-3.15.797-6.43.565-9.796-1.316-19.183-16.877-34.616-36.095-35.797-22.034-1.356-40.455 15.856-41.039 37.43-.57 21.028 16.681 39.153 37.74 39.616a38.435 38.435 0 0 0 23.525-7.35l41.035 36.327c1.759 1.557 4.537.311 4.537-2.037V2.656A2.586 2.586 0 0 0 133.87.071H68.227v.005Z"/></g><defs><clipPath id="a"><path fill="#fff" d="M0 0h600v136.634H0z"/></clipPath></defs></svg>